# xmcd
#
# Track frame offsets: 
#        150
#        17991
#        32815
#        50183
#        68203
#        81935
#        97523
#        115224
#        131052
#        151170
#        167021
#        185200
#        203074
#        217318
#
# Disc length: 3135 seconds
#
# Revision: 4
# Processed by: cddbd v1.5.2PL0 Copyright (c) Steve Scherf et al.
# Submitted via: ExactAudioCopy v1.1
#
DISCID=ca0c3d0e
DTITLE=Rhett Akins - Friday Night In Dixie
DYEAR=2002
DGENRE=Country
TTITLE0=Highway Sunrise
TTITLE1=That Girl
TTITLE2=She Was
TTITLE3=In Your Love
TTITLE4=You Rock Me
TTITLE5=Friday Night In Dixie
TTITLE6=White Lies And Blue Eyes
TTITLE7=Trouble With A Woman
TTITLE8=Livin' Not Lovin' You
TTITLE9=Right Back Atcha
TTITLE10=I Wonder What You're Doin' Tonight
TTITLE11=Must Be Livin' Right
TTITLE12=Where Rhe Blacktop Ends
TTITLE13=That Ain't My Rruck (Back Porch Acoustic Version)
EXTD=
EXTT0=
EXTT1=
EXTT2=
EXTT3=
EXTT4=
EXTT5=
EXTT6=
EXTT7=
EXTT8=
EXTT9=
EXTT10=
EXTT11=
EXTT12=
EXTT13=
PLAYORDER=
